<?xml version="1.0" encoding="utf-8"?>
<!-- Generator: Adobe Illustrator 19.1.0, SVG Export Plug-In . SVG Version: 6.00 Build 0)  -->
<svg version="1.1" id="Layer_1" xmlns="http://www.w3.org/2000/svg" xmlns:xlink="http://www.w3.org/1999/xlink" x="0px" y="0px"
	 viewBox="-345 563.5 149.8 64" style="enable-background:new -345 563.5 149.8 64;" xml:space="preserve">
<style type="text/css">
	.st0{fill:#38A8E0;}
	.st1{fill:#FFFFFF;}
	.st2{enable-background:new    ;}
</style>
<title>Group 2</title>
<desc>Created with Sketch.</desc>
<g id="Group-2">
	<g id="Group-2-Copy-8" transform="translate(86.000000, 0.000000)">
		<g id="logoWorldiF-rough-_x28_Halifax_x29_">
			<g id="Layer_1_1_">
				<g id="if">
					<rect id="Rectangle-path" x="-345.2" y="563.5" class="st0" width="64" height="64"/>
					<rect id="Rectangle-path_1_" x="-329.5" y="580.5" class="st1" width="3.7" height="30"/>
					<rect id="Rectangle-path_2_" x="-325" y="580.5" class="st1" width="3.7" height="30"/>
					<polygon id="Shape" class="st1" points="-313.6,583.8 -313.2,583.8 -312.8,583.8 -297.4,583.8 -297.4,580.5 -317.3,580.5 
						-317.3,610.5 -313.6,610.5 					"/>
					<polygon id="Shape_1_" class="st1" points="-312.8,596.4 -312.8,610.5 -309.1,610.5 -309.1,599.2 -298.4,599.2 -298.4,596.4 
											"/>
					<polygon id="Shape_2_" class="st1" points="-297.4,587.5 -297.4,584.5 -312.8,584.5 -312.8,595.5 -298.4,595.5 -298.4,592.5 
						-309.1,592.5 -309.1,587.5 					"/>
				</g>
			</g>
		</g>
	</g>
	<g>
		<g class="st2">
			<path class="st1" d="M-303.8,594.7v-11.2h-3.9v-2.9h11.1v2.9h-3.9v11.2H-303.8z"/>
			<path class="st1" d="M-286.1,594.7v-5.8h-5.1v5.8h-3.3v-14.1h3.3v5.4h5.1v-5.4h3.2v14.1H-286.1z"/>
			<path class="st1" d="M-279.4,594.7v-14.1h8.9v2.9h-5.7v2.6h5.3v2.8h-5.3v2.9h6.1v2.9L-279.4,594.7L-279.4,594.7z"/>
		</g>
		<g class="st2">
			<path class="st1" d="M-341,610.7l-4-14.1h3.5c1.7,6.4,2.1,8.1,2.4,9.5c0.3-1.4,0.9-3,2.9-9.5h2.6c2.1,6.5,2.5,7.9,2.9,9.5
				c0.3-1.5,0.7-3.2,2.4-9.5h3.3l-4.1,14.1h-3c-2.2-7.2-2.6-8.3-3-9.8c-0.4,1.5-0.7,2.6-3.1,9.8H-341z"/>
			<path class="st1" d="M-316.8,610.9c-4.1,0-6.8-2.9-6.8-7.3c0-4.4,2.9-7.3,7.1-7.3s6.8,3,6.8,7.2
				C-309.7,608.1-312.6,610.9-316.8,610.9z M-316.6,599.1c-2.1,0-3.7,1.4-3.7,4.5c0,3,1.5,4.5,3.6,4.5s3.6-1.5,3.6-4.4
				C-313.1,600.6-314.5,599.1-316.6,599.1z"/>
			<path class="st1" d="M-306.9,610.7v-14.1h4c1.2,0,2.5,0.1,3.3,0.3c2,0.5,3,1.6,3,3.7c0,1.8-0.9,3-2.5,3.7c1.2,0.6,1.8,1.8,4,6.4
				h-3.6c-1.6-3.6-2.2-4.6-2.9-5.1c-0.2-0.2-0.6-0.3-1.1-0.3h-0.9v5.4H-306.9z M-302.3,602.7c0.4,0,0.9,0,1.4-0.2
				c0.7-0.3,1-0.8,1-1.6c0-0.8-0.3-1.4-1.4-1.6c-0.4-0.1-1-0.1-1.5-0.1h-0.8v3.5L-302.3,602.7L-302.3,602.7z"/>
			<path class="st1" d="M-293.1,610.5v-14.1h3.2v11.2h6v3h-9.2V610.5z"/>
		</g>
		<g class="st2">
			<path class="st1" d="M-281.6,596.6h3.6c1.8,0,3.7,0.2,4.8,0.6c2.5,1,3.9,3,3.9,6.3c0,3.2-1.4,5.5-4.2,6.6
				c-1.1,0.4-2.8,0.6-4.8,0.6h-3.3V596.6z M-277.4,607.8c1,0,2.2-0.1,2.9-0.5c1.3-0.7,1.9-1.9,1.9-3.8c0-1.7-0.6-2.9-1.9-3.6
				c-0.7-0.4-1.8-0.5-2.8-0.5h-1.1v8.4H-277.4z"/>
		</g>
	</g>
</g>
</svg>
