<?xml version="1.0" encoding="utf-8"?>
<!-- Generator: Adobe Illustrator 19.1.0, SVG Export Plug-In . SVG Version: 6.00 Build 0)  -->
<svg version="1.1" id="Layer_1" xmlns="http://www.w3.org/2000/svg" xmlns:xlink="http://www.w3.org/1999/xlink" x="0px" y="0px"
	 viewBox="-605.5 -34.2 384 128.3" style="enable-background:new -605.5 -34.2 384 128.3;" xml:space="preserve">
<style type="text/css">
	.st0{fill:#3EA8DF;}
	.st1{fill:#FFFFFF;}
</style>
<rect x="-349.5" y="-33.8" width="128" height="127.7"/>
<g id="if_1_">
	<rect x="-349.5" y="-34.1" class="st0" width="128" height="127.7"/>
	<g>
		<rect x="-318.1" y="-0.1" class="st1" width="7.6" height="59.8"/>
		<rect x="-309.1" y="-0.1" class="st1" width="7.6" height="59.8"/>
	</g>
	<g>
		<polygon class="st1" points="-286.3,6.4 -254,6.4 -254,-0.1 -293.8,-0.1 -293.8,59.8 -286.3,59.8 		"/>
		<polygon class="st1" points="-284.7,31.5 -284.7,59.8 -277.3,59.8 -277.3,37.2 -255.9,37.2 -255.9,31.5 		"/>
		<polygon class="st1" points="-254,14 -254,8.1 -284.7,8.1 -284.7,29.8 -255.9,29.8 -255.9,23.9 -277.3,23.9 -277.3,14 		"/>
	</g>
</g>
<g>
	<path class="st1" d="M-507.1,31.9h6.9c2.7,10.4,4.3,16.6,4.6,18.7c0.4-1.3,0.9-3.2,1.6-5.5c0.7-2.3,2.1-6.8,4.2-13.3h5.1
		c3,9.2,4.9,15.4,5.8,18.7c0.8-3.9,2.4-10,4.8-18.7h6.4l-8,27.8h-5.7c-3.6-11.8-5.5-18.2-5.8-19.3c-1,3.6-3,10-6.1,19.3h-5.9
		L-507.1,31.9z"/>
	<path class="st1" d="M-468,45.7c0-2.9,0.6-5.4,1.7-7.6c1.1-2.2,2.7-3.9,4.8-5.1c2.1-1.2,4.5-1.8,7.1-1.8c2.7,0,5,0.6,7,1.8
		c2,1.2,3.6,2.9,4.6,5c1.1,2.1,1.6,4.6,1.6,7.3c0,2.3-0.4,4.3-1,6.1c-0.7,1.8-1.6,3.4-2.8,4.6c-1.2,1.2-2.7,2.2-4.4,2.9
		c-1.7,0.7-3.5,1-5.5,1c-3.9,0-7.2-1.3-9.6-4C-466.8,53.6-468,50.1-468,45.7z M-461.6,45.7c0,2.9,0.7,5.1,1.9,6.6
		c1.3,1.5,3,2.3,5.2,2.3c2.1,0,3.9-0.8,5.1-2.3c1.3-1.5,1.9-3.7,1.9-6.5c0-2.9-0.6-5.2-1.8-6.7s-2.9-2.3-5.1-2.3
		c-2.1,0-3.9,0.8-5.2,2.3C-460.9,40.7-461.6,42.8-461.6,45.7z"/>
	<path class="st1" d="M-437.8,59.7V31.9h7.8c2.8,0,4.9,0.2,6.4,0.5c2,0.5,3.4,1.4,4.4,2.5c1,1.2,1.4,2.8,1.4,4.8
		c0,3.3-1.6,5.8-4.8,7.3c1.1,0.5,2.1,1.5,3,3.1c0.9,1.5,2.6,4.7,4.8,9.6h-7.1c-1.7-3.6-2.9-6-3.6-7.3c-0.7-1.3-1.4-2.2-2-2.7
		c-0.5-0.4-1.3-0.5-2.3-0.5h-1.8v10.5L-437.8,59.7L-437.8,59.7z M-431.4,43.9h2.6c1.1,0,2-0.1,2.7-0.4c0.7-0.2,1.2-0.7,1.5-1.1
		c0.3-0.5,0.5-1.2,0.5-2c0-0.8-0.2-1.5-0.7-2s-1.1-0.9-2.1-1.1c-0.8-0.1-1.8-0.2-3-0.2h-1.5V43.9L-431.4,43.9z"/>
	<path class="st1" d="M-412.1,59.7V31.9h6.4v22.1h11.9v5.8L-412.1,59.7L-412.1,59.7z"/>
	<path class="st1" d="M-390.3,59.7V31.9h7.2c4.4,0,7.4,0.4,9.5,1.2c2.5,1,4.4,2.6,5.7,4.6s1.9,4.6,1.9,7.8s-0.7,5.9-2.1,8.1
		c-1.4,2.2-3.5,3.8-6.3,4.9c-2.3,0.8-5.4,1.2-9.4,1.2L-390.3,59.7L-390.3,59.7z M-384,53.9h1.8c2.7,0,4.7-0.3,5.8-0.9
		c2.5-1.3,3.7-3.7,3.7-7.4c0-3.4-1.3-5.8-3.7-7.1c-1.1-0.6-2.9-0.9-5.5-0.9h-2.2L-384,53.9L-384,53.9z"/>
</g>
<g>
	<path class="st1" d="M-435.5,5.7v-5.8h22.2v5.8h-7.9V28h-6.4V5.7H-435.5z"/>
	<path class="st1" d="M-410.6,28V-0.1h6.5v10.8h10.1V-0.1h6.4V28h-6.4V16.5h-10.1V28H-410.6z"/>
	<path class="st1" d="M-383.8,28V-0.1h17.9v5.8h-11.4v5.1h10.5v5.6h-10.5v5.8h12.2V28L-383.8,28L-383.8,28z"/>
</g>
</svg>
